<?xml version="1.0" encoding="UTF-8" standalone="no"?>
<svg height="152" width="152" xmlns:svg="http://www.w3.org/2000/svg" xmlns="http://www.w3.org/2000/svg" version="1.1">
	<linearGradient id="gradient" x1="0.25" y1="0.75" x2="0.95" y2="0.35">
		<stop  offset="0" style="stop-color:#ee7d11"/>
		<stop  offset="0.174" style="stop-color:#ef800f"/>
		<stop  offset="0.3341" style="stop-color:#f08a09"/>
		<stop  offset="0.4889" style="stop-color:#f39900"/>
		<stop  offset="0.6403" style="stop-color:#f7ad00"/>
		<stop  offset="0.7893" style="stop-color:#fdc500"/>
		<stop  offset="0.9345" style="stop-color:#ffe000"/>
		<stop  offset="1" style="stop-color:#ffed00"/>
	</linearGradient>
	<path fill="url(#gradient)" d="M210.329,289c0,0.719,0.058,1.422,0.084,2.136c-0.018,0.529-0.084,1.043-0.084,1.574
		c0,0.15,0.02,0.296,0.024,0.444c-0.003,0.15-0.024,0.296-0.024,0.447c0,0.582,0.058,1.15,0.091,1.725
		c0.939-14.595,13.626-26.165,29.183-26.165c6.296,0,12.114,1.912,16.89,5.133c-2.68-0.875-5.544-1.373-8.535-1.373
		c-14.533,0-26.313,11.222-26.313,25.066c0,13.845,11.78,25.065,26.313,25.065c8.335,0,15.751-3.702,20.57-9.463
		c4.73-5.427,7.583-12.387,7.583-19.988c0-17.306-14.724-31.334-32.892-31.334c-8.68,0-16.555,3.23-22.433,8.465
		c7.825-8.634,19.381-14.105,32.302-14.105c23.615,0,42.76,18.237,42.76,40.732c0,21.637-17.722,39.282-40.083,40.604
		c0.728,0.032,1.442,0.105,2.177,0.105c26.298,0,47.615-20.31,47.615-45.359s-21.316-45.357-47.615-45.357
		c-14.742,0-27.918,6.387-36.65,16.413c11.472-16.302,30.913-27.066,53.073-27.066c35.361,0,64.031,27.311,64.031,60.999
		c0,33.689-28.67,61.002-64.031,61.002c-7.838,0-15.313-1.407-22.253-3.864c10.839,5.432,23.174,8.524,36.274,8.524
		c43.109,0,78.057-33.294,78.057-74.361c0-41.069-34.948-74.361-78.057-74.361C245.277,214.639,210.329,247.931,210.329,289" transform="scale(0.95, 1) translate(-208,-213)"/>
</svg>
